Jump_normalized_Motion_pl05
version=1
nRows=20
nColumns=43
inDegrees=yes
endheader
time		pelvis_tilt		pelvis_list		pelvis_rotation		pelvis_tx		pelvis_ty		pelvis_tz		hip_flexion_r		hip_adduction_r		hip_rotation_r		knee_angle_r		ankle_angle_r		subtalar_angle_r		mtp_angle_r		hip_flexion_l		hip_adduction_l		hip_rotation_l		knee_angle_l		ankle_angle_l		subtalar_angle_l		mtp_angle_l		lumbar_extension		lumbar_bending		lumbar_rotation		neck_flexion		neck_lateral_bending		neck_rotation		arm_flex_r		arm_add_r		arm_rot_r		elbow_flex_r		pro_sup_r		wrist_flex_r		wrist_dev_r		hand_finger_flex_r		arm_flex_l		arm_add_l		arm_rot_l		elbow_flex_l		pro_sup_l		wrist_flex_l		wrist_dev_l		hand_finger_flex_l		
2.821667		-2.164219		-20.660736		86.609611		0.004446		1.601435		1.627358		94.755011		-8.842851		17.697154		-141.225344		20.262406		15.562959		21.895479		89.483084		-9.609524		12.170145		-144.033110		18.689548		19.405288		39.101611		-45.548445		-4.398873		-2.023586		39.888051		7.620429		-0.231593		103.242064		-9.549974		25.997201		58.328463		77.782444		-4.807322		-4.391297		-21.219611		108.021709		-10.463587		28.269368		52.875991		90.275581		-11.499039		-2.604098		-0.365554		
2.824520		-2.222964		-20.597869		86.666605		0.004337		1.602895		1.624763		94.208441		-8.915037		17.774168		-141.098638		20.021069		15.507981		21.887987		88.873596		-9.580727		11.981527		-143.852936		18.601304		19.494964		39.079090		-45.591663		-4.513470		-2.160110		39.922019		7.959268		-0.249642		104.433662		-9.536148		26.804225		57.889928		75.559300		-4.101209		-5.042105		-22.407806		109.176625		-10.296211		28.943202		52.473024		89.495426		-11.362122		-2.969435		-0.640443		
2.827374		-2.211283		-20.853513		86.725515		0.004310		1.603732		1.622185		94.026469		-8.963520		17.738028		-141.003143		19.911682		15.564884		21.886191		88.640800		-9.613804		11.909682		-143.694527		18.605145		19.503708		39.070708		-45.226156		-4.542172		-2.196827		39.925265		8.033832		-0.349233		105.288225		-9.216940		26.993301		57.638296		74.897857		-3.950642		-5.078573		-22.886346		110.019879		-10.088911		29.243687		52.281445		89.392633		-11.357362		-3.006162		-0.782004		
2.830227		-2.192647		-21.179357		86.784089		0.004203		1.604685		1.619269		93.836029		-9.024845		17.734625		-140.849703		19.861561		15.604730		21.886835		88.398870		-9.645134		11.840287		-143.474988		18.615598		19.498072		39.067725		-44.789755		-4.544598		-2.157019		39.851569		8.068729		-0.387459		105.935138		-8.969024		27.004172		57.656618		74.643966		-3.911695		-5.090814		-23.164366		110.620653		-9.856529		29.334082		52.357517		89.364842		-11.453938		-3.033784		-0.975485		
2.833081		-2.194277		-21.231624		86.848009		0.004052		1.605919		1.616631		93.414788		-9.096197		17.742557		-140.725428		19.534988		15.728138		21.894288		87.925152		-9.635336		11.670752		-143.298157		18.579179		19.340331		39.046989		-44.675215		-4.592411		-2.232932		39.894671		8.249189		-0.503619		107.104107		-8.921355		27.755032		57.263954		72.931255		-3.447876		-5.176470		-25.336498		111.728741		-9.693827		30.222375		51.993892		88.911302		-12.186161		-3.053020		-2.549666		
2.835934		-2.163662		-21.523672		86.918006		0.004004		1.606779		1.613827		93.222313		-9.138639		17.712085		-140.606510		19.483679		15.824010		21.903943		87.687271		-9.691952		11.577476		-143.101229		18.635134		19.216987		39.041100		-44.259066		-4.586638		-2.236591		39.860826		8.245175		-0.588429		107.905001		-8.655049		27.842231		57.072772		72.915018		-3.363621		-4.997438		-26.395255		112.511711		-9.514052		30.588637		51.881555		88.885879		-12.436502		-2.908799		-3.677000		
2.838788		-2.136617		-21.760551		86.991939		0.003924		1.607801		1.610932		92.947325		-9.185977		17.697840		-140.475464		19.376640		15.941809		21.918617		87.360357		-9.736390		11.441784		-142.881908		18.665052		19.052191		39.033509		-43.914437		-4.578593		-2.247723		39.818975		8.270037		-0.655770		108.750582		-8.438064		27.962651		56.873229		72.846906		-3.212261		-4.782957		-27.934628		113.318258		-9.360209		31.048606		51.780388		88.777215		-12.855795		-2.739208		-5.448259		
2.841641		-2.116636		-21.971162		87.066085		0.003864		1.608923		1.607921		92.616766		-9.231241		17.694665		-140.323732		19.249556		16.093066		21.938977		86.977904		-9.789317		11.299485		-142.649947		18.683269		18.898344		39.036299		-43.592145		-4.582317		-2.275273		39.784610		8.293116		-0.700523		109.562657		-8.198455		27.993125		56.684260		73.037248		-3.223543		-4.442994		-29.320675		114.090436		-9.194739		31.452878		51.697368		88.802433		-13.264967		-2.472572		-7.762580		
2.844495		-2.091173		-22.245946		87.140678		0.003805		1.609807		1.604990		92.386717		-9.261245		17.714898		-140.203090		19.142294		16.210049		21.952114		86.715805		-9.849381		11.202252		-142.448568		18.698375		18.818952		39.039155		-43.181578		-4.574389		-2.280732		39.669994		8.329087		-0.757994		110.415249		-8.009129		28.106551		56.441992		73.258674		-3.223345		-4.113749		-30.153941		114.860937		-9.043741		31.785214		51.563704		88.909789		-13.432458		-2.247743		-9.188539		
2.847348		-2.133235		-22.441092		87.212881		0.003765		1.611009		1.601771		92.024786		-9.335133		17.773925		-140.054953		19.130003		16.362528		22.026937		86.265707		-9.884618		10.998314		-142.194210		18.728130		18.709261		39.082831		-42.886206		-4.618597		-2.349344		39.664348		8.351223		-0.823512		111.210435		-7.861287		28.068044		56.316995		73.650664		-2.858234		-3.654309		-32.806701		115.706006		-9.126623		32.326752		51.608175		88.383820		-12.517213		-1.989216		-14.268703		
2.850202		-2.089172		-22.718102		87.285651		0.003705		1.611872		1.598758		91.803903		-9.328113		17.790583		-139.926672		18.860935		16.518382		22.037189		86.003374		-9.965265		10.934724		-142.002891		18.669632		18.723362		39.089766		-42.442946		-4.600707		-2.340716		39.481104		8.398302		-0.856717		111.984554		-7.596019		28.043868		55.989016		73.805496		-2.955491		-3.383243		-33.135492		116.337899		-8.870781		32.323246		51.403783		88.592457		-12.667763		-1.843876		-14.958439		
2.853056		-2.044020		-22.872352		87.352453		0.003628		1.613206		1.595340		91.348439		-9.341802		17.781832		-139.732737		18.432011		16.762343		22.056304		85.507444		-10.047014		10.838567		-141.755686		18.577804		18.713739		39.105127		-42.140346		-4.584816		-2.297365		39.233620		8.387726		-0.842333		112.676743		-7.411141		28.060684		55.845686		74.152068		-3.237031		-3.047945		-33.690851		116.902436		-8.667650		32.456361		51.330277		89.100542		-13.242502		-1.671616		-16.117578		
2.855909		-2.010962		-23.160928		87.439688		0.003574		1.614168		1.592110		91.103667		-9.375076		17.770584		-139.586967		18.273004		16.844642		22.065688		85.213330		-10.140259		10.739796		-141.534730		18.587175		18.696720		39.113448		-41.687848		-4.572780		-2.302329		39.188562		8.470435		-0.892943		113.399583		-7.226899		28.112698		55.603738		74.282285		-3.352156		-2.789506		-33.956002		117.486815		-8.483223		32.508416		51.220518		89.214455		-13.428194		-1.540958		-16.584988		
2.858763		-1.974392		-23.435232		87.535455		0.003524		1.615340		1.588617		90.770004		-9.385763		17.741768		-139.391597		18.039125		16.944096		22.073806		84.832070		-10.207773		10.630113		-141.273705		18.570595		18.677225		39.120992		-41.238926		-4.558502		-2.293085		39.057222		8.503118		-0.917894		113.977134		-7.092674		28.112739		55.499837		74.361151		-3.463531		-2.619805		-34.213601		117.986495		-8.346852		32.592227		51.190832		89.338669		-13.637583		-1.461725		-17.023645		
2.861616		-1.927327		-23.631738		87.631990		0.003487		1.616559		1.585100		90.386247		-9.385634		17.716199		-139.210761		17.629499		17.049218		22.084308		84.363933		-10.313174		10.520535		-141.017818		18.549282		18.596853		39.132077		-40.867007		-4.533704		-2.281105		38.904602		8.562466		-0.942070		114.592995		-6.916509		28.136089		55.298362		74.369443		-3.587002		-2.463253		-34.563743		118.523755		-8.194283		32.714512		51.075666		89.456857		-13.985602		-1.379214		-17.590290		
2.864470		-1.876267		-23.892253		87.760400		0.003461		1.617621		1.581394		90.053272		-9.376788		17.721628		-139.053954		17.399781		17.108276		22.090446		83.916282		-10.410937		10.430172		-140.737240		18.537526		18.553694		39.138457		-40.395047		-4.496514		-2.272745		38.802351		8.589986		-0.951026		115.061644		-6.804908		28.112321		55.216214		74.362564		-3.658565		-2.404396		-34.763874		118.946699		-8.070862		32.763929		51.053302		89.517212		-14.184744		-1.349047		-17.911988		
2.867323		-1.808579		-23.918262		87.820331		0.003379		1.619353		1.577646		89.454572		-9.384143		17.622840		-138.816485		16.695327		17.189123		22.110494		83.213245		-10.575195		10.234660		-140.429113		18.466599		18.368860		39.162016		-40.222316		-4.471482		-2.214396		38.463084		8.648649		-0.951998		115.659010		-6.635604		28.176035		54.949618		74.185130		-3.752329		-2.509811		-35.318966		119.533803		-7.934597		33.006941		50.858349		89.592300		-14.779982		-1.303611		-18.845111		
2.870177		-1.772993		-24.186543		87.934735		0.003321		1.620585		1.573687		89.041814		-9.329261		17.624429		-138.597767		16.605590		17.192723		22.125469		82.725638		-10.608427		10.138525		-140.126251		18.459947		18.344988		39.178964		-39.721737		-4.448154		-2.218719		38.425829		8.652834		-0.938633		116.013850		-6.570087		28.192487		54.884089		74.076153		-3.728687		-2.621254		-35.554550		119.881292		-7.859650		33.055495		50.848258		89.514749		-14.882228		-1.330678		-19.200742		
2.873030		-1.729823		-23.908643		87.995574		0.003245		1.622786		1.569599		88.094758		-9.306545		17.624271		-138.362367		16.295996		17.112562		22.265775		81.590142		-10.741560		9.940974		-139.790026		18.441869		18.198572		39.340423		-39.903455		-4.437161		-2.224916		38.365139		8.692696		-0.867824		116.817839		-6.506949		28.673966		54.277241		73.176894		-3.290935		-3.433463		-37.385319		120.660420		-7.919045		33.687463		50.599832		88.691689		-15.121004		-1.554112		-21.808784		
2.875884		-1.672716		-24.179167		88.124852		0.003143		1.623844		1.565511		87.761016		-9.344303		17.569377		-138.187509		15.944283		17.245429		22.278671		81.124848		-10.837444		9.826596		-139.505821		18.326715		18.250324		39.357557		-39.340186		-4.379651		-2.187466		38.013336		8.699248		-0.903861		117.051857		-6.422691		28.610733		54.212641		73.171801		-3.291061		-3.454536		-37.486689		120.931068		-7.830771		33.645859		50.529347		88.740739		-15.115715		-1.528561		-21.951911		
